<?xml version="1.0" encoding="UTF-8" standalone="no"?>
<!-- Created with Inkscape (http://www.inkscape.org/) -->

<svg
   xmlns:dc="http://purl.org/dc/elements/1.1/"
   xmlns:cc="http://creativecommons.org/ns#"
   xmlns:rdf="http://www.w3.org/1999/02/22-rdf-syntax-ns#"
   xmlns:svg="http://www.w3.org/2000/svg"
   xmlns="http://www.w3.org/2000/svg"
   xmlns:sodipodi="http://sodipodi.sourceforge.net/DTD/sodipodi-0.dtd"
   xmlns:inkscape="http://www.inkscape.org/namespaces/inkscape"
   width="210mm"
   height="297mm"
   viewBox="0 0 210 297"
   version="1.1"
   id="svg8"
   inkscape:version="0.92.4 (5da689c313, 2019-01-14)"
   sodipodi:docname="ogien.svg">
  <defs
     id="defs2" />
  <sodipodi:namedview
     id="base"
     pagecolor="#ffffff"
     bordercolor="#666666"
     borderopacity="1.0"
     inkscape:pageopacity="0.0"
     inkscape:pageshadow="2"
     inkscape:zoom="0.57986984"
     inkscape:cx="448.54473"
     inkscape:cy="450.86279"
     inkscape:document-units="mm"
     inkscape:current-layer="layer1"
     showgrid="false"
     inkscape:snap-global="false"
     inkscape:window-width="1366"
     inkscape:window-height="689"
     inkscape:window-x="-9"
     inkscape:window-y="-9"
     inkscape:window-maximized="1" />
  <metadata
     id="metadata5">
    <rdf:RDF>
      <cc:Work
         rdf:about="">
        <dc:format>image/svg+xml</dc:format>
        <dc:type
           rdf:resource="http://purl.org/dc/dcmitype/StillImage" />
        <dc:title></dc:title>
      </cc:Work>
    </rdf:RDF>
  </metadata>
  <g
     inkscape:label="Layer 1"
     inkscape:groupmode="layer"
     id="layer1">
    <path
       style="fill:#ff7f2a;stroke:none;stroke-width:0.26458332px;stroke-linecap:butt;stroke-linejoin:miter;stroke-opacity:1"
       d="m 36.046163,219.88859 c -4.9528,-2.13493 -27.8331131,-20.07635 -12.775855,-37.87129 5.019085,8.66933 10.950733,9.58189 10.950733,9.58189 0,0 -2.295211,-15.04574 5.931646,-23.27031 8.669332,-8.66692 0.456281,-26.92055 0.456281,-26.92055 0,0 12.65719,14.33148 10.494453,32.85219 3.883075,-16.16496 12.319577,-19.62005 12.319577,-19.62005 3.788911,9.67046 5.475376,18.92043 3.193962,27.37683 3.453432,2.22784 6.863831,4.11141 9.125612,-3.19397 -1.495001,-2.73768 -1.63122,-5.47537 4.106523,-8.21305 4.027522,6.73162 3.977271,15.50213 3.193966,24.63916 3.558119,-3.5423 8.188652,-5.15426 5.931646,-19.16379 3.750977,6.76269 7.30615,5.65388 7.300489,11.8633 2.799397,-2.41697 -0.531654,-14.02962 -2.281402,-23.27031 0.29432,-7.31282 2.047009,-12.07567 6.387926,-15.05726 2.25093,-1.54607 0.3507,-6.20064 4.56281,-10.03817 -0.11102,8.28788 2.24531,15.58881 8.21305,21.44518 5.30543,4.85801 11.16343,9.32133 8.21305,20.07635 3.04187,-2.58418 6.08374,-6.25675 9.12561,-10.03818 5.28988,3.67028 5.27022,10.52629 4.5628,17.79495 4.19972,-3.90959 11.07557,-5.90766 7.30049,-15.51354 -4.34001,-9.97605 1.26485,-14.26931 5.01909,-19.62007 -1.1136,5.99283 -1.42066,10.97748 2.2814,10.95074 -0.24367,-3.80234 3.29401,-7.60468 9.12561,-11.40702 3.8309,-4.68634 3.96627,-13.52448 5.47537,-20.53262 2.67831,3.55085 7.53932,4.04592 4.5628,15.51354 -2.46485,7.84823 -4.18466,15.5309 4.10653,20.9889 l 4.5628,2.28141 4.10653,-7.30049 c 3.30322,7.40385 2.89976,13.88103 1.36884,20.07634 -4.54263,4.06928 -11.01595,6.85143 -8.66933,15.51354 l 8.21305,-2.73769 c -2.52717,24.39908 -6.35367,20.85103 -15.05726,23.7266 -15.31539,5.06004 -32.73079,-13.88577 -71.409065,-5.65546 -30.74868,6.54297 -56.389643,6.29904 -59.999732,4.7429 z"
       id="path220"
       inkscape:connector-curvature="0"
       sodipodi:nodetypes="sccsccccccccccscccccccccccccccccsss" />
    <path
       style="fill:#ffcc00;stroke:none;stroke-width:0.13646364px;stroke-linecap:butt;stroke-linejoin:miter;stroke-opacity:1"
       d="m 49.297165,212.17433 c -3.781342,-0.74387 -21.249898,-6.99518 -9.754049,-13.19545 3.831945,3.02065 8.360614,3.33861 8.360614,3.33861 0,0 -7.683983,-8.43633 -1.402977,-11.302 6.618821,-3.01981 0.804638,-13.94271 0.804638,-13.94271 0,0 11.032297,10.46887 9.381098,16.92202 2.964636,-5.63234 6.668014,-10.94272 6.668014,-10.94272 2.89274,3.36947 11.024519,12.98035 9.282718,15.9268 2.63661,0.77625 13.909697,-0.84886 15.636511,-3.39427 -1.141396,-0.95388 1.948567,-4.18917 6.329191,-5.14306 3.074921,2.34549 -0.157408,7.68279 -0.755446,10.86639 2.716538,-1.23424 6.251833,-1.79589 4.52867,-6.67721 2.863773,2.35631 5.578063,1.96997 5.573743,4.13351 2.13726,-0.84214 -0.40591,-4.88832 -1.7418,-8.10804 0.22471,-2.548 0.194,-7.40147 3.50818,-8.44034 1.71853,-0.5387 -1.10108,-11.74238 2.11476,-13.07949 -0.0848,2.88773 5.36448,15.01349 9.9207,17.05402 4.05057,1.69267 7.61044,6.44177 5.35791,10.18913 2.32239,-0.9004 4.64478,-2.18003 6.96717,-3.49759 4.0387,1.27883 4.02369,3.66766 3.48358,6.20027 3.2064,-1.36221 8.45593,-2.0584 5.57376,-5.40536 -3.31349,-3.47594 0.96568,-4.97184 3.83194,-6.83619 -0.85021,2.08807 -1.08463,3.82486 1.7418,3.81555 -0.18604,-1.32485 2.51489,-2.64969 6.96717,-3.97454 2.92481,-1.63285 6.22212,-11.55652 7.37428,-13.99836 2.04482,1.23722 7.12493,5.05997 4.85243,9.05561 -1.88185,2.73455 -7.75769,8.60537 -1.42757,10.5071 l 3.48359,-2.85533 5.87291,-3.91255 c 2.52193,2.57971 -0.52378,9.85564 -1.6926,12.01426 -3.46819,1.41785 -8.41041,2.38723 -6.61882,5.40536 l 8.55186,2.24007 c -1.92943,8.50134 -7.09713,8.99883 -13.77725,8.26703 -13.06177,-1.4309 -24.98916,-8.03216 -54.51908,-5.16449 -23.475847,2.27976 -51.72143,4.47617 -54.477645,3.93397 z"
       id="path220-6"
       inkscape:connector-curvature="0"
       sodipodi:nodetypes="sccsccccccccccscccccccccccccccccsss" />
  </g>
</svg>
