<?xml version="1.0" encoding="UTF-8" standalone="no"?>
<!-- Created with Inkscape (http://www.inkscape.org/) -->

<svg
   xmlns:dc="http://purl.org/dc/elements/1.1/"
   xmlns:cc="http://creativecommons.org/ns#"
   xmlns:rdf="http://www.w3.org/1999/02/22-rdf-syntax-ns#"
   xmlns:svg="http://www.w3.org/2000/svg"
   xmlns="http://www.w3.org/2000/svg"
   xmlns:sodipodi="http://sodipodi.sourceforge.net/DTD/sodipodi-0.dtd"
   xmlns:inkscape="http://www.inkscape.org/namespaces/inkscape"
   width="210mm"
   height="297mm"
   viewBox="0 0 210 297"
   version="1.1"
   id="svg8"
   inkscape:version="0.92.4 (5da689c313, 2019-01-14)"
   sodipodi:docname="pokój 1.svg">
  <defs
     id="defs2" />
  <sodipodi:namedview
     id="base"
     pagecolor="#ffffff"
     bordercolor="#666666"
     borderopacity="1.0"
     inkscape:pageopacity="0.0"
     inkscape:pageshadow="2"
     inkscape:zoom="0.35"
     inkscape:cx="-70"
     inkscape:cy="588.61782"
     inkscape:document-units="mm"
     inkscape:current-layer="layer1"
     showgrid="false"
     inkscape:snap-grids="true"
     inkscape:snap-page="false"
     inkscape:object-paths="true"
     inkscape:snap-nodes="false"
     inkscape:snap-global="false"
     inkscape:window-width="1366"
     inkscape:window-height="689"
     inkscape:window-x="-9"
     inkscape:window-y="-9"
     inkscape:window-maximized="1" />
  <metadata
     id="metadata5">
    <rdf:RDF>
      <cc:Work
         rdf:about="">
        <dc:format>image/svg+xml</dc:format>
        <dc:type
           rdf:resource="http://purl.org/dc/dcmitype/StillImage" />
        <dc:title></dc:title>
      </cc:Work>
    </rdf:RDF>
  </metadata>
  <g
     inkscape:label="Layer 1"
     inkscape:groupmode="layer"
     id="layer1">
    <rect
       id="rect3757"
       width="187.47621"
       height="187.47618"
       x="15.119"
       y="19.565468"
       style="stroke-width:0.26458332" />
    <rect
       style="fill:#445016;stroke-width:0.26458332"
       id="rect3859-3-8"
       width="19.654762"
       height="157.99405"
       x="148.92256"
       y="30.904755" />
    <rect
       style="fill:#445016;stroke-width:0.26458332"
       id="rect3859-3"
       width="19.654762"
       height="157.99405"
       x="70.303513"
       y="30.904751" />
    <rect
       style="fill:#445016;stroke-width:0.26458332"
       id="rect3859"
       width="19.654762"
       height="157.99405"
       x="30.993992"
       y="30.904753" />
    <rect
       style="fill:#445016;stroke-width:0.26458332"
       id="rect3859-8"
       width="19.654762"
       height="157.99405"
       x="109.61304"
       y="30.904755" />
    <rect
       style="fill:#552200;stroke-width:0.26458332"
       id="rect3859-6"
       width="19.654762"
       height="157.99405"
       x="50.648754"
       y="30.904755" />
    <rect
       style="fill:#552200;stroke-width:0.26458332"
       id="rect3859-6-7"
       width="19.654762"
       height="157.99405"
       x="89.958282"
       y="30.904755" />
    <rect
       style="fill:#552200;stroke-width:0.26458332"
       id="rect3859-6-4"
       width="19.654762"
       height="157.99405"
       x="129.26778"
       y="30.904755" />
    <rect
       style="fill:#552200;stroke-width:0.26458332"
       id="rect3859-6-7-4"
       width="19.654762"
       height="157.99405"
       x="168.57735"
       y="30.904755" />
    <path
       style="fill:#502d16;stroke-width:1;stroke:#000000;stroke-opacity:1;stroke-miterlimit:4;stroke-dasharray:none"
       d="M 202.59521,207.0417 V 19.565468 l -15.87499,15.11905 V 188.8988 Z"
       id="rect3757-2-0-3"
       inkscape:connector-curvature="0"
       sodipodi:nodetypes="ccccc" />
    <path
       style="fill:#502d16;stroke-width:1;stroke:#000000;stroke-opacity:1;stroke-miterlimit:4;stroke-dasharray:none"
       d="M 15.119,207.0417 V 19.565468 l 15.874991,15.11905 V 188.8988 Z"
       id="rect3757-2-0"
       inkscape:connector-curvature="0"
       sodipodi:nodetypes="ccccc" />
    <path
       style="fill:#6c5d53;stroke-width:1;stroke-miterlimit:4;stroke-dasharray:none;stroke:#000000;stroke-opacity:1"
       d="M 15.118984,19.565468 H 202.59521 L 186.72022,42.244041 H 30.993991 Z"
       id="rect3757-2"
       inkscape:connector-curvature="0"
       sodipodi:nodetypes="ccccc" />
    <rect
       style="fill:#000000;stroke-width:0.24153018"
       id="rect3950"
       width="3.7797542"
       height="26.458334"
       x="107.34519"
       y="33.928566" />
    <path
       style="fill:#784421;stroke-width:0.26458332"
       d="M 15.874999,185.875 30.238094,163.19643 30.994007,173.77979 15.119,207.0417 Z"
       id="rect3918"
       inkscape:connector-curvature="0"
       sodipodi:nodetypes="ccccc" />
    <path
       style="fill:#784421;stroke-width:0.26458332"
       d="m 201.83925,185.875 -13.60716,-22.67857 -1.51185,10.58336 15.87501,33.26191 z"
       id="rect3918-4"
       inkscape:connector-curvature="0"
       sodipodi:nodetypes="ccccc" />
    <rect
       style="fill:#784421;stroke-width:0.23162656"
       id="rect3936"
       width="157.99399"
       height="12.851185"
       x="30.238094"
       y="163.19643" />
    <path
       style="fill:#d4aa00;stroke-width:0.16258565"
       d="M 89.206611,67.27827 A 20.409855,18.520832 0 0 1 109.77385,49.04818 20.409855,18.520832 0 0 1 130.02382,67.568443 H 109.61396 Z"
       id="path3940" />
    <path
       style="fill:#ffe680;stroke-width:0.08778895"
       d="m 129.26785,67.94642 c 0,2.505006 -8.13396,3.779762 -20.03273,3.779762 -11.898774,0 -19.276778,-2.030708 -19.27678,-4.535714 -1e-6,-2.505006 7.378004,-4.535715 19.27678,-4.535715 11.89878,0 20.03273,2.786661 20.03273,5.291667 z"
       id="path3944"
       inkscape:connector-curvature="0"
       sodipodi:nodetypes="sssss" />
    <path
       style="fill:#ffffff;stroke-width:0.26458332"
       id="path3952"
       sodipodi:type="arc"
       sodipodi:cx="-109.61412"
       sodipodi:cy="-64.166664"
       sodipodi:rx="8.3154764"
       sodipodi:ry="8.3154764"
       sodipodi:start="3.1572657"
       sodipodi:end="0"
       d="m -117.92858,-64.296988 a 8.3154764,8.3154764 0 0 1 8.37962,-8.184897 8.3154764,8.3154764 0 0 1 8.25032,8.315221 h -8.31548 z"
       transform="scale(-1)" />
    <path
       style="fill:#677821;stroke-width:2.85714293"
       d="M 266.28571,500.094 V 382.85757 l 35,-64.1161 c 19.25,-35.26385 35.64286,-64.15032 36.42858,-64.19214 0.78571,-0.0418 1.42857,81.56682 1.42857,181.35253 v 181.42857 h -36.42857 -36.42858 z"
       id="path3962"
       inkscape:connector-curvature="0"
       transform="scale(0.26458333)" />
    <path
       style="fill:#677821;stroke-width:2.85714293"
       d="M 414.85714,446.07693 V 274.82342 L 427,273.32143 c 6.67857,-0.82609 19.77349,-2.3128 29.09981,-3.30381 9.32632,-0.99101 19.91424,-2.92619 23.52872,-4.30041 l 6.57177,-2.49858 0.75699,177.05636 0.757,177.05636 -36.42858,-4.6e-4 -36.42857,-4.6e-4 z"
       id="path3964"
       inkscape:connector-curvature="0"
       transform="scale(0.26458333)" />
    <path
       style="fill:#677821;stroke-width:2.85714293"
       d="m 563.42857,503.90186 c 0,-62.38571 1.08104,-112.20714 2.40231,-110.71428 1.32127,1.49285 17.33332,30.58852 35.58233,64.65704 l 33.18003,61.94276 0.84624,48.7752 0.84623,48.77519 -36.42857,-0.004 -36.42857,-0.004 z"
       id="path3966"
       inkscape:connector-curvature="0"
       transform="scale(0.26458333)" />
    <path
       style="fill:#677821;stroke-width:2.85714293"
       d="m 140.91127,610.90186 c 7.54171,-14.26777 46.04452,-83.64305 46.96482,-84.62233 0.54318,-0.57799 1.37185,19.67379 1.84147,45.00396 l 0.85387,46.05486 -26.5291,-0.004 -26.52909,-0.004 z"
       id="path3968"
       inkscape:connector-curvature="0"
       transform="scale(0.26458333)" />
    <path
       style="fill:#a05a2c;stroke-width:2.85714293"
       d="m 414.14286,658.03131 c -161.46429,-0.40023 -293.57143,-1.56239 -293.57143,-2.58257 0,-1.02018 4.56292,-10.01415 10.13983,-19.98659 l 10.13983,-18.13172 273.4316,0.0217 273.4316,0.0217 10.61051,20.55821 c 5.83577,11.30702 10.33577,20.61866 10,20.69253 -0.3358,0.0739 -132.71766,-0.19314 -294.18194,-0.59338 z"
       id="path3976"
       inkscape:connector-curvature="0"
       transform="scale(0.26458333)" />
    <path
       style="fill:none;stroke:#000000;stroke-width:1;stroke-linecap:butt;stroke-linejoin:miter;stroke-opacity:1;stroke-miterlimit:4;stroke-dasharray:none"
       d="m 15.119047,21.077381 15.875001,21.92262 V 173.77976 l -15.875,34.01786"
       id="path3997"
       inkscape:connector-curvature="0"
       sodipodi:nodetypes="cccc" />
    <path
       style="fill:#916f6f;stroke-width:1;stroke:#000000;stroke-opacity:1;opacity:1;stroke-miterlimit:4;stroke-dasharray:none"
       d="M 15.119,207.0417 H 202.59523 L 186.72024,173.77979 H 30.994007 Z"
       id="rect3757-2-2"
       inkscape:connector-curvature="0"
       sodipodi:nodetypes="ccccc" />
    <path
       style="fill:none;stroke:#000000;stroke-width:1;stroke-linecap:butt;stroke-linejoin:miter;stroke-miterlimit:4;stroke-dasharray:none;stroke-opacity:1"
       d="m 201.86275,20.728033 -15.87501,21.92262 V 173.43041 l 15.875,34.01786"
       id="path3997-0"
       inkscape:connector-curvature="0"
       sodipodi:nodetypes="cccc" />
  </g>
</svg>
