<?xml version="1.0" encoding="UTF-8" standalone="no"?>
<!-- Created with Inkscape (http://www.inkscape.org/) -->

<svg
   xmlns:dc="http://purl.org/dc/elements/1.1/"
   xmlns:cc="http://creativecommons.org/ns#"
   xmlns:rdf="http://www.w3.org/1999/02/22-rdf-syntax-ns#"
   xmlns:svg="http://www.w3.org/2000/svg"
   xmlns="http://www.w3.org/2000/svg"
   xmlns:sodipodi="http://sodipodi.sourceforge.net/DTD/sodipodi-0.dtd"
   xmlns:inkscape="http://www.inkscape.org/namespaces/inkscape"
   width="210mm"
   height="297mm"
   viewBox="0 0 210 297"
   version="1.1"
   id="svg1545"
   inkscape:version="0.92.4 (5da689c313, 2019-01-14)"
   sodipodi:docname="drawing.svg">
  <defs
     id="defs1539" />
  <sodipodi:namedview
     id="base"
     pagecolor="#ffffff"
     bordercolor="#666666"
     borderopacity="1.0"
     inkscape:pageopacity="0.0"
     inkscape:pageshadow="2"
     inkscape:zoom="0.5"
     inkscape:cx="29.362201"
     inkscape:cy="732.25714"
     inkscape:document-units="mm"
     inkscape:current-layer="layer1"
     showgrid="false"
     inkscape:snap-global="false"
     inkscape:window-width="1366"
     inkscape:window-height="689"
     inkscape:window-x="-9"
     inkscape:window-y="-9"
     inkscape:window-maximized="1" />
  <metadata
     id="metadata1542">
    <rdf:RDF>
      <cc:Work
         rdf:about="">
        <dc:format>image/svg+xml</dc:format>
        <dc:type
           rdf:resource="http://purl.org/dc/dcmitype/StillImage" />
        <dc:title></dc:title>
      </cc:Work>
    </rdf:RDF>
  </metadata>
  <g
     inkscape:label="Layer 1"
     inkscape:groupmode="layer"
     id="layer1">
    <path
       style="fill:#000000;fill-opacity:1;stroke:none;stroke-width:1;stroke-miterlimit:4;stroke-dasharray:none;stroke-opacity:1"
       d="m 35.529762,87.601196 c 30.238094,-1.007936 64.507928,-1.007937 102.809518,0 -6.98645,48.728454 -5.04149,98.945464 0,149.678574 H 35.529762 c 1.821365,-45.88585 7.508618,-83.26676 0,-149.678574 z"
       id="rect1569"
       inkscape:connector-curvature="0"
       sodipodi:nodetypes="ccccc" />
    <circle
       style="fill:#deaa87;fill-opacity:1;stroke:#000000;stroke-width:1.53389835;stroke-miterlimit:4;stroke-dasharray:none;stroke-opacity:1"
       id="path1574"
       cx="86.556541"
       cy="45.645828"
       r="68.413689" />
    <path
       style="fill:#66ff00;fill-opacity:1;stroke:none;stroke-width:0.96091503;stroke-miterlimit:4;stroke-dasharray:none;stroke-opacity:1"
       d="m 38.704762,129.17857 c 30.968871,9.82413 62.797968,10.33197 95.627968,0 v 12.09524 c -35.504473,6.87689 -67.568018,7.23237 -95.627968,0 z"
       id="rect1576"
       inkscape:connector-curvature="0"
       sodipodi:nodetypes="ccccc" />
    <path
       style="fill:#c4c8b7;fill-opacity:1;stroke:none;stroke-width:0.95825267;stroke-miterlimit:4;stroke-dasharray:none;stroke-opacity:1"
       d="m 38.855953,137.116 c 30.797501,9.82413 62.450467,10.33197 95.098797,0 v 12.09524 c -35.308003,6.87689 -67.194118,7.23237 -95.098797,0 z"
       id="rect1576-8"
       inkscape:connector-curvature="0"
       sodipodi:nodetypes="ccccc" />
    <path
       style="fill:#66ff00;fill-opacity:1;stroke:none;stroke-width:0.95825267;stroke-miterlimit:4;stroke-dasharray:none;stroke-opacity:1"
       d="m 38.855956,146.18742 c 30.797502,9.82413 62.450474,10.33197 95.098804,0 v 12.09524 c -35.308003,6.87689 -67.194124,7.23237 -95.098804,0 z"
       id="rect1576-6"
       inkscape:connector-curvature="0"
       sodipodi:nodetypes="ccccc" />
    <path
       style="fill:#66ff00;fill-opacity:1;stroke:none;stroke-width:0.98652464;stroke-miterlimit:4;stroke-dasharray:none;stroke-opacity:1"
       d="m 36.135207,209.1961 c 32.498741,9.86731 65.900183,10.37738 100.351993,0 v 12.14841 c -37.258399,6.90712 -70.90588,7.26416 -100.351993,0 z"
       id="rect1576-2"
       inkscape:connector-curvature="0"
       sodipodi:nodetypes="ccccc" />
    <path
       style="fill:#c4c8b7;fill-opacity:1;stroke:none;stroke-width:0.99429697;stroke-miterlimit:4;stroke-dasharray:none;stroke-opacity:1"
       d="m 35.718753,217.16842 c 33.012839,9.86732 66.942667,10.37738 101.939487,0 v 12.14841 c -37.847801,6.90712 -72.027557,7.26416 -101.939487,0 z"
       id="rect1576-8-6"
       inkscape:connector-curvature="0"
       sodipodi:nodetypes="ccccc" />
    <path
       style="fill:#66ff00;fill-opacity:1;stroke:none;stroke-width:0.99429697;stroke-miterlimit:4;stroke-dasharray:none;stroke-opacity:1"
       d="m 35.718753,226.27971 c 33.012839,9.86732 66.942677,10.3774 101.939497,0 v 12.14841 c -37.847802,6.90712 -72.027567,7.26416 -101.939497,0 z"
       id="rect1576-6-7"
       inkscape:connector-curvature="0"
       sodipodi:nodetypes="ccccc" />
    <ellipse
       style="fill:#ff0000;fill-opacity:1;stroke:#000000;stroke-width:1.37763357;stroke-miterlimit:4;stroke-dasharray:none;stroke-opacity:1"
       id="path1574-2"
       cx="85.615265"
       cy="14.357282"
       rx="68.413689"
       ry="55.184521" />
    <path
       style="fill:#ff2a2a;fill-opacity:1;stroke:#000000;stroke-width:1.38837254;stroke-miterlimit:4;stroke-dasharray:none;stroke-opacity:1"
       d="m 154.13869,21.833331 c 0,16.330399 4.60631,34.865278 -9.30223,46.097485 -12.04909,9.730561 -41.29421,13.320373 -59.107322,13.320373 -19.1876,0 -47.536849,-5.779863 -59.976698,-17.486089 -12.439849,-11.706227 -8.970298,-29.338817 -8.970298,-44.577603 66.643647,11.326596 28.959451,10.96131 67.33465,10.96131 38.375198,10e-7 -0.383897,0.365287 70.021898,-8.315476 z"
       id="path1574-2-2"
       inkscape:connector-curvature="0"
       sodipodi:nodetypes="cssscsc" />
    <ellipse
       style="fill:#ff2a2a;fill-opacity:1;stroke:#000000;stroke-width:1;stroke-miterlimit:4;stroke-dasharray:none;stroke-opacity:1"
       id="path2203"
       cx="85.989586"
       cy="-17.589584"
       rx="13.49375"
       ry="39.952084" />
  </g>
</svg>
